HIERARCHY
ROOT Hips
{
    OFFSET   0.000000   0.000000   0.000000
    CHANNELS 6 Xposition Yposition Zposition Zrotation Xrotation Yrotation
    JOINT Chest
    {
        OFFSET   0.000000   8.007240   0.000000
        CHANNELS 3 Zrotation Xrotation Yrotation
        JOINT Chest2
        {
            OFFSET   0.000000  22.077100   0.000000
            CHANNELS 3 Zrotation Xrotation Yrotation
            JOINT Neck
            {
                OFFSET   0.000000  23.254800   0.000000
                CHANNELS 3 Zrotation Xrotation Yrotation
                JOINT Head
                {
                    OFFSET   0.000000  14.370000   1.956600
                    CHANNELS 3 Zrotation Xrotation Yrotation
                    End Site
                    {
                        OFFSET   0.000000  19.566000   0.000000
                    }
                }
            }
            JOINT LeftCollar
            {
                OFFSET   3.911900  19.017000  -0.467064
                CHANNELS 3 Zrotation Xrotation Yrotation
                JOINT LeftShoulder
                {
                    OFFSET  10.383700   0.000000   0.000000
                    CHANNELS 3 Zrotation Xrotation Yrotation
                    JOINT LeftElbow
                    {
                        OFFSET  26.662100   0.001476   0.000517
                        CHANNELS 3 Zrotation Xrotation Yrotation
                        JOINT LeftWrist
                        {
                            OFFSET  28.869000  -0.000025  -0.000106
                            CHANNELS 3 Zrotation Xrotation Yrotation
                            JOINT LeftFinger0
                            {
                                OFFSET   2.044660  -2.323460   3.252850
                                CHANNELS 3 Zrotation Xrotation Yrotation
                                JOINT LeftFinger01
                                {
                                    OFFSET   3.088130   0.000000   0.000000
                                    CHANNELS 3 Zrotation Xrotation Yrotation
                                    JOINT LeftFinger02
                                    {
                                        OFFSET   2.639460   0.000000   0.000000
                                        CHANNELS 3 Zrotation Xrotation Yrotation
                                        End Site
                                        {
                                            OFFSET   2.582190   0.000000   0.000000
                                        }
                                    }
                                }
                            }
                            JOINT LeftFinger1
                            {
                                OFFSET   8.364480   0.000000   3.252850
                                CHANNELS 3 Zrotation Xrotation Yrotation
                                JOINT LeftFinger11
                                {
                                    OFFSET   4.646930   0.000000   0.000000
                                    CHANNELS 3 Zrotation Xrotation Yrotation
                                    JOINT LeftFinger12
                                    {
                                        OFFSET   2.323460   0.000000   0.000000
                                        CHANNELS 3 Zrotation Xrotation Yrotation
                                        End Site
                                        {
                                            OFFSET   2.273050   0.000000   0.000000
                                        }
                                    }
                                }
                            }
                            JOINT LeftFinger2
                            {
                                OFFSET   8.364490   0.000015   1.078090
                                CHANNELS 3 Zrotation Xrotation Yrotation
                                JOINT LeftFinger21
                                {
                                    OFFSET   5.111620   0.000000   0.000000
                                    CHANNELS 3 Zrotation Xrotation Yrotation
                                    JOINT LeftFinger22
                                    {
                                        OFFSET   2.788160   0.000016   0.000000
                                        CHANNELS 3 Zrotation Xrotation Yrotation
                                        End Site
                                        {
                                            OFFSET   2.727660   0.000000   0.000000
                                        }
                                    }
                                }
                            }
                            JOINT LeftFinger3
                            {
                                OFFSET   7.899780   0.000017  -1.078090
                                CHANNELS 3 Zrotation Xrotation Yrotation
                                JOINT LeftFinger31
                                {
                                    OFFSET   4.646930   0.000000   0.000000
                                    CHANNELS 3 Zrotation Xrotation Yrotation
                                    JOINT LeftFinger32
                                    {
                                        OFFSET   2.323470   0.000000   0.000000
                                        CHANNELS 3 Zrotation Xrotation Yrotation
                                        End Site
                                        {
                                            OFFSET   2.273050   0.000000   0.000000
                                        }
                                    }
                                }
                            }
                            JOINT LeftFinger4
                            {
                                OFFSET   7.435090   0.000000  -3.252850
                                CHANNELS 3 Zrotation Xrotation Yrotation
                                JOINT LeftFinger41
                                {
                                    OFFSET   3.717550   0.000000   0.000000
                                    CHANNELS 3 Zrotation Xrotation Yrotation
                                    JOINT LeftFinger42
                                    {
                                        OFFSET   1.858770   0.000000   0.000000
                                        CHANNELS 3 Zrotation Xrotation Yrotation
                                        End Site
                                        {
                                            OFFSET   1.818440   0.000000   0.000000
                                        }
                                    }
                                }
                            }
                        }
                    }
                }
            }
            JOINT RightCollar
            {
                OFFSET  -3.911900  19.017000  -0.467063
                CHANNELS 3 Zrotation Xrotation Yrotation
                JOINT RightShoulder
                {
                    OFFSET -10.383700   0.000019   0.000000
                    CHANNELS 3 Zrotation Xrotation Yrotation
                    JOINT RightElbow
                    {
                        OFFSET -26.662100   0.001175   0.000102
                        CHANNELS 3 Zrotation Xrotation Yrotation
                        JOINT RightWrist
                        {
                            OFFSET -28.869000   0.000016  -0.000079
                            CHANNELS 3 Zrotation Xrotation Yrotation
                            JOINT RightFinger0
                            {
                                OFFSET  -2.044660  -2.323490   3.252850
                                CHANNELS 3 Zrotation Xrotation Yrotation
                                JOINT RightFinger01
                                {
                                    OFFSET  -3.088140   0.000000   0.000000
                                    CHANNELS 3 Zrotation Xrotation Yrotation
                                    JOINT RightFinger02
                                    {
                                        OFFSET  -2.639460   0.000000   0.000000
                                        CHANNELS 3 Zrotation Xrotation Yrotation
                                        End Site
                                        {
                                            OFFSET  -2.582190   0.000000   0.000000
                                        }
                                    }
                                }
                            }
                            JOINT RightFinger1
                            {
                                OFFSET  -8.364480   0.000000   3.252850
                                CHANNELS 3 Zrotation Xrotation Yrotation
                                JOINT RightFinger11
                                {
                                    OFFSET  -4.646930   0.000000   0.000000
                                    CHANNELS 3 Zrotation Xrotation Yrotation
                                    JOINT RightFinger12
                                    {
                                        OFFSET  -2.323470   0.000000   0.000000
                                        CHANNELS 3 Zrotation Xrotation Yrotation
                                        End Site
                                        {
                                            OFFSET  -2.273050   0.000000   0.000000
                                        }
                                    }
                                }
                            }
                            JOINT RightFinger2
                            {
                                OFFSET  -8.364480   0.000000   1.078090
                                CHANNELS 3 Zrotation Xrotation Yrotation
                                JOINT RightFinger21
                                {
                                    OFFSET  -5.111620   0.000000   0.000000
                                    CHANNELS 3 Zrotation Xrotation Yrotation
                                    JOINT RightFinger22
                                    {
                                        OFFSET  -2.788160   0.000000   0.000000
                                        CHANNELS 3 Zrotation Xrotation Yrotation
                                        End Site
                                        {
                                            OFFSET  -2.727660   0.000000   0.000000
                                        }
                                    }
                                }
                            }
                            JOINT RightFinger3
                            {
                                OFFSET  -7.899780   0.000000  -1.078090
                                CHANNELS 3 Zrotation Xrotation Yrotation
                                JOINT RightFinger31
                                {
                                    OFFSET  -4.646930   0.000000   0.000000
                                    CHANNELS 3 Zrotation Xrotation Yrotation
                                    JOINT RightFinger32
                                    {
                                        OFFSET  -2.323470   0.000000   0.000000
                                        CHANNELS 3 Zrotation Xrotation Yrotation
                                        End Site
                                        {
                                            OFFSET  -2.273050   0.000000   0.000000
                                        }
                                    }
                                }
                            }
                            JOINT RightFinger4
                            {
                                OFFSET  -7.435090   0.000000  -3.252850
                                CHANNELS 3 Zrotation Xrotation Yrotation
                                JOINT RightFinger41
                                {
                                    OFFSET  -3.717550   0.000000   0.000000
                                    CHANNELS 3 Zrotation Xrotation Yrotation
                                    JOINT RightFinger42
                                    {
                                        OFFSET  -1.858770   0.000000   0.000000
                                        CHANNELS 3 Zrotation Xrotation Yrotation
                                        End Site
                                        {
                                            OFFSET  -1.818440   0.000000   0.000000
                                        }
                                    }
                                }
                            }
                        }
                    }
                }
            }
        }
    }
    JOINT LeftHip
    {
        OFFSET   9.783040   0.000000   0.000000
        CHANNELS 3 Zrotation Xrotation Yrotation
        JOINT LeftKnee
        {
            OFFSET   0.000032 -41.789100  -0.002222
            CHANNELS 3 Zrotation Xrotation Yrotation
            JOINT LeftAnkle
            {
                OFFSET   0.000087 -41.133200  -0.000135
                CHANNELS 3 Zrotation Xrotation Yrotation
                JOINT LeftToe
                {
                    OFFSET   0.000000  -6.358960  14.674500
                    CHANNELS 3 Zrotation Xrotation Yrotation
                    End Site
                    {
                        OFFSET   0.000000   0.000000   3.913200
                    }
                }
            }
        }
    }
    JOINT RightHip
    {
        OFFSET  -9.783040   0.000000   0.000000
        CHANNELS 3 Zrotation Xrotation Yrotation
        JOINT RightKnee
        {
            OFFSET   0.000047 -41.789100  -0.000896
            CHANNELS 3 Zrotation Xrotation Yrotation
            JOINT RightAnkle
            {
                OFFSET  -0.000117 -41.133300  -0.000248
                CHANNELS 3 Zrotation Xrotation Yrotation
                JOINT RightToe
                {
                    OFFSET   0.000000  -6.358970  14.674500
                    CHANNELS 3 Zrotation Xrotation Yrotation
                    End Site
                    {
                        OFFSET   0.000000   0.000000   3.913200
                    }
                }
            }
        }
    }
}
MOTION
Frames: 4
Frame Time:   0.016667
 -2.464260  89.436900   0.141447  -1.826470 -11.430500   1.432060   1.604480   5.484630   0.630867   3.169890  10.984600   1.114120   0.656726  -2.349190   0.025471   1.083980  -4.762050   7.416520  -4.470520  -4.319550  -3.923280 -45.272400 -18.055700 -61.297700   0.893465 -24.053800 -59.611800   0.409817 -13.634100   0.171216  44.166000  35.752500 -76.332600 -13.138800  -0.000259   0.013119  -1.569420   0.000008   0.001518 -28.347900   7.143280 -12.952000 -23.850400   0.004476   0.000289 -16.695300   0.000429   0.000272 -27.330600   2.172140  -4.206580 -28.734500   0.003275   0.000234 -19.137200   0.001936  -0.000050 -21.341200  -2.460120   6.245290 -21.434900  -0.005113  -0.000437 -14.275600   0.000226  -0.001117 -20.710200  -4.244970  11.026000 -31.678500  -0.017182  -0.001937 -21.097900  -0.009634  -0.007217   2.586720  -6.070240   9.416760  32.928100 -21.536100  60.577200 -22.193800 -15.418400  47.241800 -17.685700  -9.386610  19.959900 -53.161300  40.600700  81.085400   8.274240  -0.005344  -0.010967  -0.862893  -0.002374   0.001915  40.930400  11.455200  12.902800  34.554500   0.001270  -0.017284  24.615100  -0.002260  -0.007779  29.316900   2.407820   4.269370  43.698000   0.003081   0.003465  29.102900   0.002705  -0.002698  28.287200   1.361260   2.550660  34.325800   0.001837  -0.000620  22.861000   0.003393   0.002316  38.102300  -0.545891  -0.699160  57.158400   0.000058  -0.000242  38.067500   0.000028  -0.000072   3.338090  15.341300   1.940200   2.242510   0.711992   7.435940  -3.423140  -3.318900   2.284320  -0.000000   0.000000   0.000000   3.695320  10.902300  -3.714800   1.796620   5.501810  -6.700780  -3.554520  -5.147690  -2.253600  -0.000000   0.000000   0.000000
 -2.410080  89.444200   0.097606  -1.843560 -11.410000   1.429930   1.614310   5.510920   0.621583   3.190500  11.037000   1.093780   0.643817  -2.344730   0.024975   1.062690  -4.752680   7.470690  -4.656090  -4.461820  -3.872640 -44.990400 -17.024600 -59.569700   1.811970 -21.849700 -59.144700   0.967722 -13.455600   1.205060  44.091700  35.400700 -75.830200 -13.618800  -0.001510   0.013843  -1.809420  -0.000923   0.001518 -28.355600   7.041190 -12.799500 -23.840100   0.008115  -0.000060 -16.688100   0.000436  -0.000108 -27.335000   2.146300  -4.166110 -28.741800   0.005398   0.000137 -19.142100   0.003373  -0.000340 -21.304800  -2.704380   6.846840 -21.444700  -0.010020  -0.001245 -14.282100   0.000215  -0.002457 -20.589200  -4.413400  11.501000 -31.524900  -0.032521  -0.001971 -20.995600  -0.018273  -0.013009   2.678420  -6.104670   9.517830  32.917100 -20.269100  59.857800 -22.118500 -14.553800  47.505700 -16.871000  -8.847140  19.917300 -52.751100  40.124900  80.219500   8.671350  -0.005114  -0.010754  -0.664338  -0.002151   0.001816  42.541200  11.486800  12.237700  35.820200   0.000983  -0.015993  25.826400  -0.002237  -0.007961  29.753700   2.491900   4.338220  44.989600   0.003020   0.003858  29.963200   0.002705  -0.002568  28.335000   1.138960   2.139410  34.691400  -0.000297  -0.000643  23.104500   0.003394   0.002386  38.153700  -0.563527  -0.722723  57.235900  -0.000151   0.003097  38.119100   0.001199   0.002858   3.327260  15.316000   1.939380   2.230160   0.667521   7.432490  -3.382340  -3.283840   2.302660  -0.000000   0.000000   0.000000   3.675240  10.853500  -3.736360   1.788790   5.502340  -6.662490  -3.547470  -5.111410  -2.271360  -0.000000   0.000000   0.000000
 -2.350360  89.453000   0.055926  -1.856650 -11.393400   1.430540   1.625880   5.540570   0.606505   3.215210  11.095900   1.061480   0.628152  -2.341220   0.024484   1.036770  -4.745720   7.542740  -4.874810  -4.647540  -3.830770 -44.591900 -15.747600 -57.665400   2.680360 -19.783600 -58.744600   1.431500 -12.880600   2.105820  43.492600  34.651200 -74.935400 -15.699600  -0.002173   0.014477  -2.849790  -0.002920   0.001511 -28.522500   6.947620 -12.569200 -23.957300   0.004285  -0.000511 -16.770100   0.000439  -0.000663 -27.462100   1.590830  -3.043270 -29.219500  -0.000814   0.007039 -19.460300  -0.001925  -0.000895 -21.219200  -2.972180   7.525450 -21.397800  -0.017810  -0.003342 -14.250900   0.000441  -0.004496 -20.278900  -4.563810  12.070900 -31.093900  -0.040874  -0.002015 -20.708500  -0.022941  -0.016520   2.800320  -6.106940   9.674770  32.957900 -18.921800  59.018700 -22.058500 -13.699600  47.875000 -16.107500  -8.386620  19.845400 -52.606600  39.838400  79.678100   9.094240  -0.004875  -0.010641  -0.452879  -0.001947   0.001722  43.776000  11.493200  11.733600  36.789200   0.000705  -0.014739  26.745000  -0.002210  -0.007804  30.208800   2.614050   4.465620  45.683800   0.002960   0.004247  30.425500   0.002704  -0.002281  28.348300   0.929757   1.756570  34.765100  -0.001082  -0.000619  23.153600   0.003394   0.002425  38.012200  -0.417251  -0.516546  57.021700  -0.000359   0.008044  37.976500   0.002600   0.005601   3.310980  15.301700   1.928740   2.209470   0.606716   7.430620  -3.331990  -3.242470   2.323940   0.000000   0.000000   0.000000   3.645060  10.816700  -3.764460   1.784880   5.494060  -6.602950  -3.542680  -5.075120  -2.315550  -0.000000   0.000000   0.000000
 -2.287820  89.462100   0.019079  -1.868830 -11.380300   1.433430   1.636290   5.571330   0.586433   3.238100  11.157000   1.019190   0.609614  -2.337990   0.023968   1.006110  -4.739460   7.630420  -5.113140  -4.834260  -3.772830 -44.202300 -14.241100 -55.713700   3.567810 -17.828100 -58.309400   1.731070 -12.147700   2.980280  42.785400  33.748400 -73.923900 -17.872300  -0.002459   0.014800  -3.936130  -0.005361   0.001496 -28.710000   6.802960 -12.256000 -24.074500  -0.002233  -0.001029 -16.852200   0.000439  -0.001287 -27.577600   0.851408  -1.542940 -29.686200  -0.009883   0.013941 -19.771100  -0.009264  -0.001411 -21.016800  -3.238240   8.272690 -21.222100  -0.022700  -0.005958 -14.133900   0.000667  -0.006849 -19.833400  -4.705030  12.724300 -30.503500  -0.044488  -0.002055 -20.315300  -0.024927  -0.018153   2.949120  -6.104380   9.855160  33.067300 -17.472100  58.124500 -21.991300 -12.841700  48.264800 -15.497100  -7.901490  19.735700 -52.506200  39.590200  79.191000   9.534040  -0.004635  -0.010280  -0.232962  -0.001747   0.001630  44.796500  11.481700  11.322400  37.588900   0.000434  -0.013243  27.510700  -0.002181  -0.007384  30.606900   2.718430   4.572380  46.072300   0.002893   0.004634  30.684200   0.002703  -0.001891  28.355400   0.700975   1.337300  34.775600  -0.001530  -0.000574  23.160600   0.003394   0.002548  37.727600  -0.270961  -0.310380  56.593300  -0.000563   0.012886  37.691200   0.004128   0.007970   3.294350  15.293000   1.913620   2.184810   0.543355   7.427620  -3.277780  -3.202780   2.347200  -0.000000   0.000000   0.000000   3.609610  10.784300  -3.781750   1.782310   5.484320  -6.536270  -3.537670  -5.039890  -2.376240  -0.000000   0.000000   0.000000
